<?xml version="1.0" standalone="no"?>
<!DOCTYPE svg PUBLIC "-//W3C//DTD SVG 20010904//EN"
 "http://www.w3.org/TR/2001/REC-SVG-20010904/DTD/svg10.dtd">
<svg version="1.0" xmlns="http://www.w3.org/2000/svg"
 width="480.000000pt" height="360.000000pt" viewBox="0 0 480.000000 360.000000"
 preserveAspectRatio="xMidYMid meet">

<g transform="translate(0.000000,360.000000) scale(0.100000,-0.100000)"
fill="#000000" stroke="none">
<path d="M1260 1800 l0 -1800 1140 0 1140 0 0 1800 0 1800 -1140 0 -1140 0 0
-1800z m2170 270 l0 -1430 -1035 0 -1035 0 0 1430 0 1430 1035 0 1035 0 0
-1430z m-885 -1575 c0 -39 -1 -40 -37 -43 l-38 -3 0 46 0 46 38 -3 c36 -3 37
-4 37 -43z m-895 -10 c0 -23 -4 -25 -45 -25 l-45 0 0 -40 0 -40 45 0 c41 0 45
-2 45 -25 0 -23 -4 -25 -45 -25 l-45 0 0 -60 0 -60 -35 0 -35 0 0 59 c0 43 -4
60 -15 65 -8 3 -15 12 -15 21 0 9 7 18 15 21 10 4 15 20 15 50 0 32 4 44 15
44 8 0 15 9 15 20 0 18 7 20 65 20 63 0 65 -1 65 -25z m1340 -4 c0 -28 3 -30
43 -33 37 -3 42 -6 42 -28 0 -22 -5 -25 -42 -28 l-43 -3 0 -64 0 -64 43 -3
c35 -2 43 -7 45 -25 3 -22 0 -23 -62 -23 -52 0 -66 3 -66 15 0 8 -7 15 -15 15
-12 0 -15 15 -15 74 0 56 -4 75 -15 80 -8 3 -15 15 -15 26 0 11 7 20 15 20 10
0 15 11 15 35 0 33 2 35 35 35 32 0 35 -2 35 -29z m-921 -37 c17 -4 31 -13 31
-20 0 -8 7 -14 15 -14 12 0 15 -16 15 -80 0 -104 -13 -120 -100 -120 -47 0
-60 3 -60 15 0 8 -7 15 -15 15 -12 0 -15 16 -15 85 0 69 3 85 15 85 8 0 15 6
15 14 0 8 12 17 28 19 15 2 30 5 33 6 4 0 21 -2 38 -5z m268 -14 c3 -11 9 -20
14 -20 5 0 9 -11 9 -25 0 -22 -4 -25 -35 -25 -24 0 -35 5 -35 15 0 8 -9 15
-20 15 -18 0 -20 -7 -20 -65 0 -51 3 -65 15 -65 8 0 15 7 15 15 0 11 12 15 45
15 41 0 45 -2 45 -25 0 -18 -5 -25 -20 -25 -11 0 -20 -7 -20 -15 0 -12 -13
-15 -60 -15 -47 0 -60 3 -60 15 0 8 -7 15 -15 15 -12 0 -15 16 -15 85 0 47 4
85 9 85 5 0 11 9 14 20 4 17 14 20 67 20 53 0 63 -3 67 -20z m486 0 c12 -14
17 -38 17 -80 l0 -60 -55 0 c-42 0 -55 -3 -55 -15 0 -11 11 -15 40 -15 36 0
40 -2 40 -25 0 -24 -2 -25 -65 -25 -51 0 -65 3 -65 15 0 8 -4 15 -10 15 -6 0
-10 35 -10 85 0 50 4 85 10 85 6 0 10 9 10 20 0 18 7 20 63 20 50 0 66 -4 80
-20z m-943 -15 c0 -24 -3 -25 -55 -25 -48 0 -55 -2 -55 -20 0 -17 7 -20 45
-20 32 0 45 -4 45 -14 0 -8 7 -16 15 -20 9 -3 15 -19 15 -41 0 -24 -4 -35 -15
-35 -8 0 -15 -7 -15 -15 0 -12 -16 -15 -80 -15 -79 0 -80 0 -80 25 0 24 3 25
55 25 48 0 55 2 55 20 0 17 -7 20 -40 20 -29 0 -40 4 -40 15 0 8 -7 15 -15 15
-11 0 -15 11 -15 40 0 29 4 40 15 40 8 0 15 7 15 15 0 12 15 15 75 15 73 0 75
-1 75 -25z m660 -65 l0 -90 30 0 c25 0 30 -4 30 -25 0 -25 -1 -25 -90 -25 -89
0 -90 0 -90 25 0 20 5 25 25 25 24 0 25 2 25 65 0 63 -1 65 -25 65 -20 0 -25
5 -25 25 0 24 3 25 60 25 l60 0 0 -90z m670 5 c0 -69 3 -85 15 -85 12 0 15 16
15 85 l0 85 40 0 40 0 0 -99 c0 -79 -3 -100 -15 -105 -9 -3 -15 -18 -15 -36 0
-20 -5 -30 -15 -30 -8 0 -15 -7 -15 -15 0 -8 -7 -15 -15 -15 -8 0 -15 -7 -15
-15 0 -12 -14 -15 -65 -15 -63 0 -65 1 -65 25 0 23 4 25 40 25 29 0 40 4 40
15 0 8 7 15 15 15 8 0 15 5 15 10 0 6 -13 10 -30 10 -20 0 -30 5 -30 15 0 8
-4 15 -10 15 -6 0 -10 40 -10 100 l0 100 40 0 40 0 0 -85z"/>
<path d="M1470 3158 l0 -233 24 42 c186 325 779 498 1265 368 242 -65 415
-178 527 -345 l44 -65 0 233 0 232 -930 0 -930 0 0 -232z"/>
<path d="M1464 2786 c-3 -7 -4 -40 -2 -72 l3 -59 44 -16 43 -16 -43 -9 c-43
-9 -44 -10 -47 -50 -3 -46 7 -53 78 -54 34 -1 34 -1 -20 -24 -55 -22 -55 -22
-58 -69 -2 -26 -1 -47 1 -47 12 0 157 102 165 116 5 9 5 35 1 57 -5 23 -13 73
-18 111 -11 76 -33 109 -88 132 -41 18 -52 18 -59 0z"/>
<path d="M3268 2780 c-54 -29 -78 -65 -78 -117 0 -25 -7 -69 -16 -99 -11 -39
-12 -58 -5 -73 9 -16 133 -111 146 -111 3 0 5 20 5 44 0 42 -2 45 -47 67 l-48
23 45 6 c45 5 45 5 48 48 3 40 2 43 -27 48 -39 8 -39 15 -1 36 29 16 30 20 30
83 0 36 -3 65 -7 65 -5 -1 -24 -10 -45 -20z"/>
<path d="M1849 2731 c-45 -15 -146 -72 -167 -94 -11 -12 -24 -34 -27 -49 -6
-25 -4 -28 16 -28 12 0 52 17 88 39 79 46 133 65 161 56 11 -4 80 -54 153
-112 73 -58 147 -112 164 -121 30 -14 34 -14 54 4 30 27 49 68 49 104 0 24 -7
34 -32 48 -17 9 -59 36 -92 59 -121 84 -152 96 -251 100 -49 1 -102 -1 -116
-6z"/>
<path d="M2728 2726 c-41 -16 -77 -38 -131 -79 -20 -16 -60 -40 -87 -53 -74
-36 -78 -94 -10 -159 l28 -27 38 20 c22 11 93 64 159 117 66 53 129 101 139
107 26 14 84 -4 169 -53 81 -46 107 -50 107 -15 0 33 -49 78 -128 117 -58 29
-79 33 -157 36 -59 2 -102 -2 -127 -11z"/>
<path d="M1723 2440 c-32 -13 -63 -68 -63 -113 0 -37 26 -97 42 -97 4 0 8 28
8 63 0 47 6 76 24 110 25 50 24 51 -11 37z"/>
<path d="M3053 2413 c17 -30 22 -54 22 -110 0 -40 3 -73 8 -73 15 0 47 66 47
98 0 40 -22 85 -52 106 -39 28 -49 19 -25 -21z"/>
<path d="M1962 2398 c-59 -13 -132 -82 -132 -125 0 -24 -9 -37 -37 -59 -21
-15 -41 -33 -45 -38 -15 -23 11 -26 54 -6 125 55 231 43 365 -40 35 -22 40 -3
8 30 l-29 30 34 35 35 36 -24 45 c-41 77 -134 114 -229 92z"/>
<path d="M2745 2405 c-5 -2 -22 -6 -38 -9 -36 -8 -101 -68 -117 -107 -12 -28
-11 -32 20 -64 l33 -34 -27 -32 c-15 -17 -25 -34 -22 -37 3 -2 43 14 90 38 74
38 92 43 153 43 51 0 84 -6 132 -26 62 -25 81 -27 81 -7 0 5 -20 23 -45 40
-35 24 -45 37 -45 58 0 44 -38 91 -95 116 -32 15 -104 27 -120 21z"/>
<path d="M2325 2308 c-2 -7 -8 -46 -13 -86 -11 -73 -11 -73 -76 -135 -61 -57
-66 -66 -66 -104 0 -51 8 -73 26 -73 10 0 14 13 14 45 0 55 17 83 72 121 23
16 47 43 55 61 15 38 18 183 3 183 -6 0 -12 -6 -15 -12z"/>
<path d="M2470 2230 l0 -94 67 -62 c64 -60 67 -65 68 -110 1 -55 20 -69 36
-27 22 58 -3 104 -97 184 -27 23 -33 37 -43 105 -17 115 -31 117 -31 4z"/>
<path d="M1704 2062 c-62 -46 -133 -128 -159 -185 -61 -130 -11 -288 110 -347
104 -52 252 -61 467 -28 70 10 81 10 120 -8 57 -26 280 -24 309 2 19 17 47 16
159 -5 l45 -9 -60 0 c-33 0 -96 -9 -139 -21 -104 -28 -209 -28 -312 1 -43 12
-97 21 -119 20 -67 -2 -125 -13 -125 -23 0 -5 29 -38 64 -73 90 -90 171 -127
291 -134 112 -6 184 9 277 56 73 36 168 119 168 146 0 8 -8 16 -17 18 -10 2
36 7 102 12 66 4 150 14 188 22 81 19 112 46 158 140 64 130 37 260 -73 359
-29 26 -65 53 -81 62 -28 14 -29 14 -22 -3 37 -89 45 -161 23 -209 -16 -35
-67 -65 -126 -72 -44 -5 -61 0 -178 52 -190 84 -207 85 -298 5 -80 -70 -111
-69 -176 1 l-48 52 -53 -5 c-33 -2 -101 -23 -173 -52 -109 -45 -123 -48 -187
-44 -62 3 -73 7 -101 36 -29 29 -33 38 -32 90 0 31 10 83 22 115 11 31 19 57
18 57 -2 0 -21 -13 -42 -28z"/>
<path d="M1460 1211 l0 -461 281 0 281 0 -53 47 c-203 177 -293 316 -311 480
-12 111 -37 175 -109 282 -97 146 -89 178 -89 -348z"/>
<path d="M3272 1593 c-72 -98 -112 -191 -139 -332 -41 -207 -71 -254 -283
-443 l-75 -67 275 0 275 -1 -3 392 c-1 216 -3 419 -5 451 l-2 59 -43 -59z"/>
<path d="M2010 325 c0 -58 2 -65 20 -65 18 0 20 7 20 65 0 58 -2 65 -20 65
-18 0 -20 -7 -20 -65z"/>
<path d="M2730 370 c0 -11 7 -20 15 -20 8 0 15 9 15 20 0 11 -7 20 -15 20 -8
0 -15 -9 -15 -20z"/>
</g>
</svg>
